<svg width="25" height="25" viewBox="0 0 25 25" fill="none" xmlns="http://www.w3.org/2000/svg">
<path d="M22.47 19.2284C22.47 19.5884 22.39 19.9584 22.22 20.3184C22.05 20.6784 21.83 21.0184 21.54 21.3384C21.05 21.8784 20.51 22.2684 19.9 22.5184C19.3 22.7684 18.65 22.8984 17.95 22.8984C16.93 22.8984 15.84 22.6584 14.69 22.1684C13.54 21.6784 12.39 21.0184 11.25 20.1884C10.1 19.3484 9.01 18.4184 7.97 17.3884C6.94 16.3484 6.01 15.2584 5.18 14.1184C4.36 12.9784 3.7 11.8384 3.22 10.7084C2.74 9.56844 2.5 8.47844 2.5 7.43844C2.5 6.75844 2.62 6.10844 2.86 5.50844C3.1 4.89844 3.48 4.33844 4.01 3.83844C4.65 3.20844 5.35 2.89844 6.09 2.89844C6.37 2.89844 6.65 2.95844 6.9 3.07844C7.16 3.19844 7.39 3.37844 7.57 3.63844L9.89 6.90844C10.07 7.15844 10.2 7.38844 10.29 7.60844C10.38 7.81844 10.43 8.02844 10.43 8.21844C10.43 8.45844 10.36 8.69844 10.22 8.92844C10.09 9.15844 9.9 9.39844 9.66 9.63844L8.9 10.4284C8.79 10.5384 8.74 10.6684 8.74 10.8284C8.74 10.9084 8.75 10.9784 8.77 11.0584C8.8 11.1384 8.83 11.1984 8.85 11.2584C9.03 11.5884 9.34 12.0184 9.78 12.5384C10.23 13.0584 10.71 13.5884 11.23 14.1184C11.77 14.6484 12.29 15.1384 12.82 15.5884C13.34 16.0284 13.77 16.3284 14.11 16.5084C14.16 16.5284 14.22 16.5584 14.29 16.5884C14.37 16.6184 14.45 16.6284 14.54 16.6284C14.71 16.6284 14.84 16.5684 14.95 16.4584L15.71 15.7084C15.96 15.4584 16.2 15.2684 16.43 15.1484C16.66 15.0084 16.89 14.9384 17.14 14.9384C17.33 14.9384 17.53 14.9784 17.75 15.0684C17.97 15.1584 18.2 15.2884 18.45 15.4584L21.76 17.8084C22.02 17.9884 22.2 18.1984 22.31 18.4484C22.41 18.6984 22.47 18.9484 22.47 19.2284Z" fill="white"/>
</svg>
