<svg width="19" height="19" viewBox="0 0 19 19" fill="none" xmlns="http://www.w3.org/2000/svg">
<path d="M16.8838 14.2514C16.8838 14.5214 16.8238 14.7989 16.6963 15.0689C16.5688 15.3389 16.4038 15.5939 16.1863 15.8339C15.8188 16.2389 15.4138 16.5314 14.9563 16.7189C14.5063 16.9064 14.0188 17.0039 13.4938 17.0039C12.7288 17.0039 11.9113 16.8239 11.0488 16.4564C10.1863 16.0889 9.32375 15.5939 8.46875 14.9714C7.60625 14.3414 6.78875 13.6439 6.00875 12.8714C5.23625 12.0914 4.53875 11.2739 3.91625 10.4189C3.30125 9.56391 2.80625 8.70891 2.44625 7.86141C2.08625 7.00641 1.90625 6.18891 1.90625 5.40891C1.90625 4.89891 1.99625 4.41141 2.17625 3.96141C2.35625 3.50391 2.64125 3.08391 3.03875 2.70891C3.51875 2.23641 4.04375 2.00391 4.59875 2.00391C4.80875 2.00391 5.01875 2.04891 5.20625 2.13891C5.40125 2.22891 5.57375 2.36391 5.70875 2.55891L7.44875 5.01141C7.58375 5.19891 7.68125 5.37141 7.74875 5.53641C7.81625 5.69391 7.85375 5.85141 7.85375 5.99391C7.85375 6.17391 7.80125 6.35391 7.69625 6.52641C7.59875 6.69891 7.45625 6.87891 7.27625 7.05891L6.70625 7.65141C6.62375 7.73391 6.58625 7.83141 6.58625 7.95141C6.58625 8.01141 6.59375 8.06391 6.60875 8.12391C6.63125 8.18391 6.65375 8.22891 6.66875 8.2739C6.80375 8.5214 7.03625 8.84391 7.36625 9.23391C7.70375 9.62391 8.06375 10.0214 8.45375 10.4189C8.85875 10.8164 9.24875 11.1839 9.64625 11.5214C10.0363 11.8514 10.3588 12.0764 10.6138 12.2114C10.6513 12.2264 10.6963 12.2489 10.7488 12.2714C10.8088 12.2939 10.8688 12.3014 10.9363 12.3014C11.0638 12.3014 11.1613 12.2564 11.2438 12.1739L11.8138 11.6114C12.0013 11.4239 12.1813 11.2814 12.3538 11.1914C12.5263 11.0864 12.6988 11.0339 12.8863 11.0339C13.0288 11.0339 13.1788 11.0639 13.3438 11.1314C13.5088 11.1989 13.6813 11.2964 13.8688 11.4239L16.3513 13.1864C16.5463 13.3214 16.6813 13.4789 16.7638 13.6664C16.8388 13.8539 16.8838 14.0414 16.8838 14.2514Z" fill="black"/>
</svg>
