<svg width="15" height="14" viewBox="0 0 15 14" fill="none" xmlns="http://www.w3.org/2000/svg">
<path d="M3.33691 11.0298H3.86865C4.20264 11.0298 4.46191 10.7705 4.46191 10.4365V9.72021C5.42871 9.77734 6.74707 9.8125 7.82812 9.8125C8.90478 9.8125 10.2231 9.77734 11.1899 9.72021V10.4365C11.1899 10.7705 11.4492 11.0298 11.7876 11.0298H12.3149C12.6533 11.0298 12.9126 10.7705 12.9126 10.4365V9.28076C13.0576 9.10937 13.1367 8.88086 13.1367 8.59961V7.82617C13.1367 7.05273 13.0005 6.61768 12.583 6.09033L12.1919 5.59814C12.0293 4.80713 11.7393 3.97656 11.5854 3.65137C11.3394 3.13281 10.8647 2.8252 10.2583 2.7417C9.9375 2.69775 8.99707 2.67578 7.82812 2.67578C6.65918 2.67578 5.71435 2.70215 5.39795 2.7417C4.7915 2.81641 4.3125 3.13281 4.0708 3.65137C3.91699 3.97656 3.62695 4.80713 3.46436 5.59814L3.07324 6.09033C2.65576 6.61768 2.51953 7.05273 2.51953 7.82617V8.59961C2.51953 8.88086 2.59863 9.10937 2.74365 9.28076V10.4365C2.74365 10.7705 3.00293 11.0298 3.33691 11.0298ZM7.82812 9.10058C6.3208 9.10058 4.44873 9.03027 3.73682 8.94678C3.35889 8.90283 3.21826 8.70947 3.21826 8.37549V7.78662C3.21826 7.19336 3.33252 6.91211 3.64014 6.50342L4.11475 5.88379C4.22461 5.29492 4.51025 4.38086 4.69043 3.98975C4.83984 3.67773 5.12109 3.49756 5.50342 3.44922C5.80664 3.40967 6.66357 3.37451 7.82812 3.37451C8.99267 3.37451 9.86279 3.41406 10.144 3.44922C10.5395 3.49756 10.812 3.68213 10.9614 3.99414C11.1504 4.37646 11.4272 5.28613 11.5371 5.88379L12.0117 6.50342C12.3237 6.91211 12.4336 7.19336 12.4336 7.78662V8.37549C12.4336 8.70947 12.293 8.90283 11.9194 8.94678C11.2075 9.03027 9.33545 9.10058 7.82812 9.10058ZM4.7124 5.44434C4.66846 5.62451 4.74756 5.70801 4.93652 5.69922C5.58252 5.65967 6.39551 5.62012 7.82812 5.62012C9.26074 5.62012 10.0737 5.65967 10.7153 5.69922C10.9087 5.70801 10.9834 5.62451 10.9438 5.44434C10.8472 5.02246 10.667 4.46875 10.5395 4.24902C10.4165 4.0293 10.2759 3.93701 10.0166 3.90186C9.71777 3.8623 9.00146 3.83154 7.82812 3.83154C6.65478 3.83154 5.93408 3.8623 5.63965 3.90186C5.38037 3.93701 5.23535 4.0293 5.1167 4.24902C4.98926 4.46875 4.80908 5.02246 4.7124 5.44434ZM4.64648 8.53369C5.06836 8.53369 5.38477 8.21728 5.38477 7.7998C5.38477 7.37793 5.06836 7.06152 4.64648 7.06152C4.229 7.06152 3.9126 7.37793 3.9126 7.7998C3.9126 8.21728 4.229 8.53369 4.64648 8.53369ZM11.0054 8.53369C11.4272 8.53369 11.7437 8.21728 11.7437 7.7998C11.7437 7.37793 11.4272 7.06152 11.0054 7.06152C10.5879 7.06152 10.2715 7.37793 10.2715 7.7998C10.2715 8.21728 10.5879 8.53369 11.0054 8.53369ZM6.6416 8.34912H9.01465C9.32666 8.34912 9.54639 8.12939 9.54639 7.81738C9.54639 7.50537 9.32666 7.28564 9.01465 7.28564H6.6416C6.32519 7.28564 6.10547 7.50537 6.10547 7.81738C6.10547 8.12939 6.32519 8.34912 6.6416 8.34912Z" fill="#969CA6"/>
</svg>
