<svg width="19" height="19" viewBox="0 0 19 19" fill="none" xmlns="http://www.w3.org/2000/svg">
<path d="M14.8789 9.82422C14.8789 8.78922 15.7189 7.94922 16.7539 7.94922V7.19922C16.7539 4.19922 16.0039 3.44922 13.0039 3.44922H5.50391C2.50391 3.44922 1.75391 4.19922 1.75391 7.19922V7.57422C2.78891 7.57422 3.62891 8.41422 3.62891 9.44922C3.62891 10.4842 2.78891 11.3242 1.75391 11.3242V11.6992C1.75391 14.6992 2.50391 15.4492 5.50391 15.4492H13.0039C16.0039 15.4492 16.7539 14.6992 16.7539 11.6992C15.7189 11.6992 14.8789 10.8592 14.8789 9.82422Z" stroke="#159F58" stroke-width="1.5" stroke-linecap="round" stroke-linejoin="round"/>
<path d="M7.00391 11.5117L11.5039 7.01172" stroke="#159F58" stroke-width="1.5" stroke-linecap="round" stroke-linejoin="round"/>
<path d="M11.4998 11.5117H11.5065" stroke="#159F58" stroke-width="2" stroke-linecap="round" stroke-linejoin="round"/>
<path d="M6.99979 7.38672H7.00652" stroke="#159F58" stroke-width="2" stroke-linecap="round" stroke-linejoin="round"/>
</svg>
