<svg width="17" height="16" viewBox="0 0 17 16" fill="none" xmlns="http://www.w3.org/2000/svg">
<path d="M2.79743 12.1529H3.10882C3.375 12.1529 3.55078 11.9821 3.55078 11.7109V10.9877C3.61105 11.0028 3.78683 11.0128 3.91239 11.0128H13.7411C13.8666 11.0128 14.0424 11.0028 14.1027 10.9877V11.7109C14.1027 11.9821 14.2785 12.1529 14.5446 12.1529H14.856C15.1222 12.1529 15.298 11.9821 15.298 11.7109V8.19029C15.298 7.28125 14.841 6.75391 13.9972 6.66853V4.90067C13.9972 3.94643 13.4849 3.44922 12.5508 3.44922H5.10268C4.16853 3.44922 3.65625 3.94643 3.65625 4.90067V6.66853C2.8125 6.75391 2.35547 7.28125 2.35547 8.19029V11.7109C2.35547 11.9821 2.53125 12.1529 2.79743 12.1529ZM5.00725 5.73437C5.00725 5.25223 5.27344 4.98605 5.76562 4.98605H7.57366C8.06082 4.98605 8.32701 5.25223 8.32701 5.73437V6.65848H5.00725V5.73437ZM9.32645 5.73437C9.32645 5.25223 9.59263 4.98605 10.0798 4.98605H11.8878C12.38 4.98605 12.6462 5.25223 12.6462 5.73437V6.65848H9.32645V5.73437ZM3.50056 10.154C3.38504 10.154 3.31975 10.0787 3.31975 9.95312V8.13002C3.31975 7.75837 3.56585 7.5173 3.9375 7.5173H13.716C14.0876 7.5173 14.3337 7.75837 14.3337 8.13002V9.95312C14.3337 10.0787 14.2684 10.154 14.1529 10.154H3.50056Z" fill="#969CA6"/>
</svg>
