<svg width="24" height="25" viewBox="0 0 24 25" fill="none" xmlns="http://www.w3.org/2000/svg">
<path d="M17 3.32812H7C4 3.32812 2 5.32812 2 8.32812V14.3281C2 17.3281 4 19.3281 7 19.3281V21.4581C7 22.2581 7.89 22.7381 8.55 22.2881L13 19.3281H17C20 19.3281 22 17.3281 22 14.3281V8.32812C22 5.32812 20 3.32812 17 3.32812ZM12 15.4981C11.58 15.4981 11.25 15.1581 11.25 14.7481C11.25 14.3381 11.58 13.9981 12 13.9981C12.42 13.9981 12.75 14.3381 12.75 14.7481C12.75 15.1581 12.42 15.4981 12 15.4981ZM13.26 11.3481C12.87 11.6081 12.75 11.7781 12.75 12.0581V12.2681C12.75 12.6781 12.41 13.0181 12 13.0181C11.59 13.0181 11.25 12.6781 11.25 12.2681V12.0581C11.25 10.8981 12.1 10.3281 12.42 10.1081C12.79 9.85812 12.91 9.68812 12.91 9.42812C12.91 8.92812 12.5 8.51812 12 8.51812C11.5 8.51812 11.09 8.92812 11.09 9.42812C11.09 9.83812 10.75 10.1781 10.34 10.1781C9.93 10.1781 9.59 9.83812 9.59 9.42812C9.59 8.09812 10.67 7.01812 12 7.01812C13.33 7.01812 14.41 8.09812 14.41 9.42812C14.41 10.5681 13.57 11.1381 13.26 11.3481Z" fill="white"/>
</svg>
