<svg width="13" height="12" viewBox="0 0 13 12" fill="none" xmlns="http://www.w3.org/2000/svg">
<g clip-path="url(#clip0_1087_5268)">
<path d="M6.5 1.08047C8.10313 1.08047 8.29297 1.0875 8.92344 1.11562C9.50938 1.14141 9.82578 1.23984 10.0367 1.32188C10.3156 1.42969 10.5172 1.56094 10.7258 1.76953C10.9367 1.98047 11.0656 2.17969 11.1734 2.45859C11.2555 2.66953 11.3539 2.98828 11.3797 3.57187C11.4078 4.20469 11.4148 4.39453 11.4148 5.99531C11.4148 7.59844 11.4078 7.78828 11.3797 8.41875C11.3539 9.00469 11.2555 9.32109 11.1734 9.53203C11.0656 9.81094 10.9344 10.0125 10.7258 10.2211C10.5148 10.432 10.3156 10.5609 10.0367 10.6688C9.82578 10.7508 9.50703 10.8492 8.92344 10.875C8.29063 10.9031 8.10078 10.9102 6.5 10.9102C4.89688 10.9102 4.70703 10.9031 4.07656 10.875C3.49063 10.8492 3.17422 10.7508 2.96328 10.6688C2.68438 10.5609 2.48281 10.4297 2.27422 10.2211C2.06328 10.0102 1.93438 9.81094 1.82656 9.53203C1.74453 9.32109 1.64609 9.00234 1.62031 8.41875C1.59219 7.78594 1.58516 7.59609 1.58516 5.99531C1.58516 4.39219 1.59219 4.20234 1.62031 3.57187C1.64609 2.98594 1.74453 2.66953 1.82656 2.45859C1.93438 2.17969 2.06563 1.97812 2.27422 1.76953C2.48516 1.55859 2.68438 1.42969 2.96328 1.32188C3.17422 1.23984 3.49297 1.14141 4.07656 1.11562C4.70703 1.0875 4.89688 1.08047 6.5 1.08047ZM6.5 0C4.87109 0 4.66719 0.00703125 4.02734 0.0351562C3.38984 0.0632813 2.95156 0.166406 2.57188 0.314062C2.17578 0.46875 1.84063 0.672656 1.50781 1.00781C1.17266 1.34063 0.96875 1.67578 0.814063 2.06953C0.666406 2.45156 0.563281 2.8875 0.535156 3.525C0.507031 4.16719 0.5 4.37109 0.5 6C0.5 7.62891 0.507031 7.83281 0.535156 8.47266C0.563281 9.11016 0.666406 9.54844 0.814063 9.92813C0.96875 10.3242 1.17266 10.6594 1.50781 10.9922C1.84063 11.325 2.17578 11.5312 2.56953 11.6836C2.95156 11.8313 3.3875 11.9344 4.025 11.9625C4.66484 11.9906 4.86875 11.9977 6.49766 11.9977C8.12656 11.9977 8.33047 11.9906 8.97031 11.9625C9.60781 11.9344 10.0461 11.8313 10.4258 11.6836C10.8195 11.5312 11.1547 11.325 11.4875 10.9922C11.8203 10.6594 12.0266 10.3242 12.1789 9.93047C12.3266 9.54844 12.4297 9.1125 12.4578 8.475C12.4859 7.83516 12.493 7.63125 12.493 6.00234C12.493 4.37344 12.4859 4.16953 12.4578 3.52969C12.4297 2.89219 12.3266 2.45391 12.1789 2.07422C12.0312 1.67578 11.8273 1.34063 11.4922 1.00781C11.1594 0.675 10.8242 0.46875 10.4305 0.316406C10.0484 0.16875 9.6125 0.065625 8.975 0.0375C8.33281 0.00703125 8.12891 0 6.5 0Z" fill="white"/>
<path d="M6.5 2.91797C4.79844 2.91797 3.41797 4.29844 3.41797 6C3.41797 7.70156 4.79844 9.08203 6.5 9.08203C8.20156 9.08203 9.58203 7.70156 9.58203 6C9.58203 4.29844 8.20156 2.91797 6.5 2.91797ZM6.5 7.99922C5.39609 7.99922 4.50078 7.10391 4.50078 6C4.50078 4.89609 5.39609 4.00078 6.5 4.00078C7.60391 4.00078 8.49922 4.89609 8.49922 6C8.49922 7.10391 7.60391 7.99922 6.5 7.99922Z" fill="white"/>
<path d="M10.4234 2.79766C10.4234 3.1961 10.1 3.51719 9.70391 3.51719C9.30547 3.51719 8.98438 3.19375 8.98438 2.79766C8.98438 2.39922 9.30781 2.07812 9.70391 2.07812C10.1 2.07812 10.4234 2.40156 10.4234 2.79766Z" fill="white"/>
</g>
<defs>
<clipPath id="clip0_1087_5268">
<rect width="12" height="12" fill="white" transform="translate(0.5)"/>
</clipPath>
</defs>
</svg>
