<svg width="25" height="25" viewBox="0 0 25 25" fill="none" xmlns="http://www.w3.org/2000/svg">
<path d="M12.5458 14.2378C10.4158 14.2378 8.67578 12.5078 8.67578 10.3678C8.67578 8.22781 10.4158 6.50781 12.5458 6.50781C14.6758 6.50781 16.4158 8.23781 16.4158 10.3778C16.4158 12.5178 14.6758 14.2378 12.5458 14.2378ZM12.5458 8.00781C11.2458 8.00781 10.1758 9.06781 10.1758 10.3778C10.1758 11.6878 11.2358 12.7478 12.5458 12.7478C13.8558 12.7478 14.9158 11.6878 14.9158 10.3778C14.9158 9.06781 13.8458 8.00781 12.5458 8.00781Z" fill="#969CA6"/>
<path d="M12.5485 22.8264C11.0685 22.8264 9.57852 22.2664 8.41852 21.1564C5.46852 18.3164 2.20852 13.7864 3.43852 8.39641C4.54852 3.50641 8.81852 1.31641 12.5485 1.31641C12.5485 1.31641 12.5485 1.31641 12.5585 1.31641C16.2885 1.31641 20.5585 3.50641 21.6685 8.40641C22.8885 13.7964 19.6285 18.3164 16.6785 21.1564C15.5185 22.2664 14.0285 22.8264 12.5485 22.8264ZM12.5485 2.81641C9.63852 2.81641 5.89852 4.36641 4.90852 8.72641C3.82852 13.4364 6.78852 17.4964 9.46852 20.0664C11.1985 21.7364 13.9085 21.7364 15.6385 20.0664C18.3085 17.4964 21.2685 13.4364 20.2085 8.72641C19.2085 4.36641 15.4585 2.81641 12.5485 2.81641Z" fill="#969CA6"/>
</svg>
