<svg width="25" height="24" viewBox="0 0 25 24" fill="none" xmlns="http://www.w3.org/2000/svg">
<path d="M22.9141 6.25V11.35C22.9141 12.62 22.4941 13.69 21.7441 14.43C21.0041 15.18 19.9341 15.6 18.6641 15.6V17.41C18.6641 18.09 17.9041 18.5 17.3441 18.12L16.3741 17.48C16.4641 17.17 16.5041 16.83 16.5041 16.47V12.4C16.5041 10.36 15.1441 9 13.1041 9H6.31406C6.17406 9 6.04406 9.01002 5.91406 9.02002V6.25C5.91406 3.7 7.61406 2 10.1641 2H18.6641C21.2141 2 22.9141 3.7 22.9141 6.25Z" stroke="#171717" stroke-width="1.5" stroke-miterlimit="10" stroke-linecap="round" stroke-linejoin="round"/>
<path d="M16.5041 12.4V16.47C16.5041 16.83 16.4641 17.17 16.3741 17.48C16.0041 18.95 14.7841 19.87 13.1041 19.87H10.3841L7.36406 21.88C6.91406 22.19 6.31406 21.86 6.31406 21.32V19.87C5.29406 19.87 4.44406 19.53 3.85406 18.94C3.25406 18.34 2.91406 17.49 2.91406 16.47V12.4C2.91406 10.5 4.09406 9.19002 5.91406 9.02002C6.04406 9.01002 6.17406 9 6.31406 9H13.1041C15.1441 9 16.5041 10.36 16.5041 12.4Z" stroke="#171717" stroke-width="1.5" stroke-miterlimit="10" stroke-linecap="round" stroke-linejoin="round"/>
</svg>
