<svg width="25" height="25" viewBox="0 0 25 25" fill="none" xmlns="http://www.w3.org/2000/svg">
<path d="M9.54531 11.413C9.44531 11.403 9.32531 11.403 9.21531 11.413C6.83531 11.333 4.94531 9.38297 4.94531 6.98297C4.94531 4.53297 6.92531 2.54297 9.38531 2.54297C11.8353 2.54297 13.8253 4.53297 13.8253 6.98297C13.8153 9.38297 11.9253 11.333 9.54531 11.413Z" stroke="#969CA6" stroke-width="1.5" stroke-linecap="round" stroke-linejoin="round"/>
<path d="M16.798 4.54297C18.738 4.54297 20.298 6.11297 20.298 8.04297C20.298 9.93297 18.798 11.473 16.928 11.543C16.848 11.533 16.758 11.533 16.668 11.543" stroke="#969CA6" stroke-width="1.5" stroke-linecap="round" stroke-linejoin="round"/>
<path d="M4.54547 15.103C2.12547 16.723 2.12547 19.363 4.54547 20.973C7.29547 22.813 11.8055 22.813 14.5555 20.973C16.9755 19.353 16.9755 16.713 14.5555 15.103C11.8155 13.273 7.30547 13.273 4.54547 15.103Z" stroke="#969CA6" stroke-width="1.5" stroke-linecap="round" stroke-linejoin="round"/>
<path d="M18.7266 20.543C19.4466 20.393 20.1266 20.103 20.6866 19.673C22.2466 18.503 22.2466 16.573 20.6866 15.403C20.1366 14.983 19.4666 14.703 18.7566 14.543" stroke="#969CA6" stroke-width="1.5" stroke-linecap="round" stroke-linejoin="round"/>
</svg>
