<svg width="25" height="25" viewBox="0 0 25 25" fill="none" xmlns="http://www.w3.org/2000/svg">
<path d="M22.47 18.83C22.47 19.19 22.39 19.56 22.22 19.92C22.05 20.28 21.83 20.62 21.54 20.94C21.05 21.48 20.51 21.87 19.9 22.12C19.3 22.37 18.65 22.5 17.95 22.5C16.93 22.5 15.84 22.26 14.69 21.77C13.54 21.28 12.39 20.62 11.25 19.79C10.1 18.95 9.01 18.02 7.97 16.99C6.94 15.95 6.01 14.86 5.18 13.72C4.36 12.58 3.7 11.44 3.22 10.31C2.74 9.17 2.5 8.08 2.5 7.04C2.5 6.36 2.62 5.71 2.86 5.11C3.1 4.5 3.48 3.94 4.01 3.44C4.65 2.81 5.35 2.5 6.09 2.5C6.37 2.5 6.65 2.56 6.9 2.68C7.16 2.8 7.39 2.98 7.57 3.24L9.89 6.51C10.07 6.76 10.2 6.99 10.29 7.21C10.38 7.42 10.43 7.63 10.43 7.82C10.43 8.06 10.36 8.3 10.22 8.53C10.09 8.76 9.9 9 9.66 9.24L8.9 10.03C8.79 10.14 8.74 10.27 8.74 10.43C8.74 10.51 8.75 10.58 8.77 10.66C8.8 10.74 8.83 10.8 8.85 10.86C9.03 11.19 9.34 11.62 9.78 12.14C10.23 12.66 10.71 13.19 11.23 13.72C11.77 14.25 12.29 14.74 12.82 15.19C13.34 15.63 13.77 15.93 14.11 16.11C14.16 16.13 14.22 16.16 14.29 16.19C14.37 16.22 14.45 16.23 14.54 16.23C14.71 16.23 14.84 16.17 14.95 16.06L15.71 15.31C15.96 15.06 16.2 14.87 16.43 14.75C16.66 14.61 16.89 14.54 17.14 14.54C17.33 14.54 17.53 14.58 17.75 14.67C17.97 14.76 18.2 14.89 18.45 15.06L21.76 17.41C22.02 17.59 22.2 17.8 22.31 18.05C22.41 18.3 22.47 18.55 22.47 18.83Z" stroke="#171717" stroke-width="1.5" stroke-miterlimit="10"/>
<path d="M19 9.5C19 8.9 18.53 7.98 17.83 7.23C17.19 6.54 16.34 6 15.5 6" stroke="#171717" stroke-width="1.5" stroke-linecap="round" stroke-linejoin="round"/>
<path d="M22.5 9.5C22.5 5.63 19.37 2.5 15.5 2.5" stroke="#171717" stroke-width="1.5" stroke-linecap="round" stroke-linejoin="round"/>
</svg>
