<svg width="25" height="25" viewBox="0 0 25 25" fill="none" xmlns="http://www.w3.org/2000/svg">
<path d="M12.6205 14.0305C12.6005 14.0305 12.5705 14.0305 12.5505 14.0305C12.5205 14.0305 12.4805 14.0305 12.4505 14.0305C10.1805 13.9605 8.48047 12.1905 8.48047 10.0105C8.48047 7.79047 10.2905 5.98047 12.5105 5.98047C14.7305 5.98047 16.5405 7.79047 16.5405 10.0105C16.5305 12.2005 14.8205 13.9605 12.6505 14.0305C12.6305 14.0305 12.6305 14.0305 12.6205 14.0305ZM12.5005 7.47047C11.1005 7.47047 9.97047 8.61047 9.97047 10.0005C9.97047 11.3705 11.0405 12.4805 12.4005 12.5305C12.4305 12.5205 12.5305 12.5205 12.6305 12.5305C13.9705 12.4605 15.0205 11.3605 15.0305 10.0005C15.0305 8.61047 13.9005 7.47047 12.5005 7.47047Z" fill="#2D2D2D"/>
<path d="M12.5008 23.2503C9.81081 23.2503 7.24081 22.2503 5.25081 20.4303C5.07081 20.2703 4.99081 20.0303 5.01081 19.8003C5.14081 18.6103 5.88081 17.5003 7.11081 16.6803C10.0908 14.7003 14.9208 14.7003 17.8908 16.6803C19.1208 17.5103 19.8608 18.6103 19.9908 19.8003C20.0208 20.0403 19.9308 20.2703 19.7508 20.4303C17.7608 22.2503 15.1908 23.2503 12.5008 23.2503ZM6.58081 19.6003C8.24081 20.9903 10.3308 21.7503 12.5008 21.7503C14.6708 21.7503 16.7608 20.9903 18.4208 19.6003C18.2408 18.9903 17.7608 18.4003 17.0508 17.9203C14.5908 16.2803 10.4208 16.2803 7.94081 17.9203C7.23081 18.4003 6.76081 18.9903 6.58081 19.6003Z" fill="#2D2D2D"/>
<path d="M12.5 23.25C6.57 23.25 1.75 18.43 1.75 12.5C1.75 6.57 6.57 1.75 12.5 1.75C18.43 1.75 23.25 6.57 23.25 12.5C23.25 18.43 18.43 23.25 12.5 23.25ZM12.5 3.25C7.4 3.25 3.25 7.4 3.25 12.5C3.25 17.6 7.4 21.75 12.5 21.75C17.6 21.75 21.75 17.6 21.75 12.5C21.75 7.4 17.6 3.25 12.5 3.25Z" fill="#2D2D2D"/>
</svg>
