<svg width="25" height="25" viewBox="0 0 25 25" fill="none" xmlns="http://www.w3.org/2000/svg">
<path d="M9.17422 11.7684C9.07422 11.7584 8.95422 11.7584 8.84422 11.7684C6.46422 11.6884 4.57422 9.73844 4.57422 7.33844C4.57422 4.88844 6.55422 2.89844 9.01422 2.89844C11.4642 2.89844 13.4542 4.88844 13.4542 7.33844C13.4442 9.73844 11.5542 11.6884 9.17422 11.7684Z" stroke="#2D2D2D" stroke-width="1.5" stroke-linecap="round" stroke-linejoin="round"/>
<path d="M16.4269 4.89844C18.3669 4.89844 19.9269 6.46844 19.9269 8.39844C19.9269 10.2884 18.4269 11.8284 16.5569 11.8984C16.4769 11.8884 16.3869 11.8884 16.2969 11.8984" stroke="#2D2D2D" stroke-width="1.5" stroke-linecap="round" stroke-linejoin="round"/>
<path d="M4.17438 15.4584C1.75437 17.0784 1.75437 19.7184 4.17438 21.3284C6.92438 23.1684 11.4344 23.1684 14.1844 21.3284C16.6044 19.7084 16.6044 17.0684 14.1844 15.4584C11.4444 13.6284 6.93438 13.6284 4.17438 15.4584Z" stroke="#2D2D2D" stroke-width="1.5" stroke-linecap="round" stroke-linejoin="round"/>
<path d="M18.3555 20.8984C19.0755 20.7484 19.7555 20.4584 20.3155 20.0284C21.8755 18.8584 21.8755 16.9284 20.3155 15.7584C19.7655 15.3384 19.0955 15.0584 18.3855 14.8984" stroke="#2D2D2D" stroke-width="1.5" stroke-linecap="round" stroke-linejoin="round"/>
</svg>
