<svg width="19" height="19" viewBox="0 0 19 19" fill="none" xmlns="http://www.w3.org/2000/svg">
<path d="M15.0271 13.4808L18.9529 17.4066L17.6566 18.7029L13.7308 14.7771C12.3192 15.9064 10.529 16.582 8.58203 16.582C4.02803 16.582 0.332031 12.886 0.332031 8.33203C0.332031 3.77803 4.02803 0.0820312 8.58203 0.0820312C13.136 0.0820312 16.832 3.77803 16.832 8.33203C16.832 10.279 16.1564 12.0692 15.0271 13.4808ZM13.188 12.8006C14.3089 11.6454 14.9987 10.0697 14.9987 8.33203C14.9987 4.78682 12.1272 1.91536 8.58203 1.91536C5.03682 1.91536 2.16536 4.78682 2.16536 8.33203C2.16536 11.8772 5.03682 14.7487 8.58203 14.7487C10.3197 14.7487 11.8954 14.0589 13.0506 12.938L13.188 12.8006Z" fill="white"/>
</svg>
