<svg width="13" height="12" viewBox="0 0 13 12" fill="none" xmlns="http://www.w3.org/2000/svg">
<path d="M6.5 0C3.18632 0 0.5 2.68632 0.5 6C0.5 8.81376 2.43728 11.1749 5.05064 11.8234V7.8336H3.81344V6H5.05064V5.20992C5.05064 3.16776 5.97488 2.2212 7.97984 2.2212C8.36 2.2212 9.01592 2.29584 9.28424 2.37024V4.03224C9.14264 4.01736 8.89664 4.00992 8.59112 4.00992C7.60736 4.00992 7.2272 4.38264 7.2272 5.35152V6H9.18704L8.85032 7.8336H7.2272V11.9561C10.1982 11.5973 12.5002 9.06768 12.5002 6C12.5 2.68632 9.81368 0 6.5 0Z" fill="white"/>
</svg>
