<?xml version="1.0" encoding="UTF-8"?>
<svg id="Layer_2" data-name="Layer 2" xmlns="http://www.w3.org/2000/svg" xmlns:xlink="http://www.w3.org/1999/xlink" viewBox="0 0 262.61 347.99">
  <defs>
    <style>
      .cls-1 {
        fill: url(#linear-gradient-2);
      }

      .cls-2 {
        fill: url(#linear-gradient);
      }

      .cls-3 {
        fill: #d3e8e9;
      }

      .cls-4 {
        fill: #027385;
      }
    </style>
    <linearGradient id="linear-gradient" x1="56.83" y1="648.36" x2="231.27" y2="648.36" gradientTransform="translate(0 -526)" gradientUnits="userSpaceOnUse">
      <stop offset="0" stop-color="#fed93b"/>
      <stop offset="1" stop-color="#f89524"/>
    </linearGradient>
    <linearGradient id="linear-gradient-2" x1="0" y1="700" x2="235.62" y2="700" gradientTransform="translate(0 -526)" gradientUnits="userSpaceOnUse">
      <stop offset="0" stop-color="#4cb4be"/>
      <stop offset="1" stop-color="#027385"/>
    </linearGradient>
  </defs>
  <g id="Layer_1-2" data-name="Layer 1">
    <g>
      <path class="cls-2" d="M225.64,172.96c-5.04,9.09-18.98,19.87-24.81,22.73-15.42,7.81-31.23,11.96-50.6,11.96s-49.61-7.51-67.11-22.63c-17.49-15.02-26.29-35.98-26.29-62.66s9.09-45.27,27.18-61.28c18.09-16.01,39.83-24.02,65.23-24.02s46.85,7.51,60.88,22.44c14.03,15.02,21.15,33.31,21.15,54.85h-105.95c0,8.3.59,16.7,1.88,25.4,1.28,8.6,3.66,17,7.21,25,3.56,8.1,8.6,14.53,15.12,19.47,6.52,4.94,14.73,7.41,24.51,7.41,34.3,1.19,51.79-18.88,51.79-18.88h0l-.2.2ZM170.78,107.53c-.2-2.57-.4-5.53-.49-8.99-.1-3.46-.2-7.81-.2-13.14,0-14.03-1.68-24.71-5.14-31.92-3.46-7.21-9.39-10.87-17.79-10.87s-12.45,3.56-15.22,10.48c-2.87,7.02-4.84,17.79-6.03,32.32l-.69,22.14h45.56Z"/>
      <path class="cls-4" d="M249.65,175.63l-10.28-19.47s-8.4,13.64-25.7,19.57l2.96-4.84-6.52-1.98,12.06-4.74,10.38-14.43h-22.44l33.6-14.13s10.08-13.54,16.9-12.45c6.82,1.09-6.13,15.22-6.13,15.22l-1.98,2.08"/>
      <path class="cls-3" d="M211.21,180.47s-38.15,21.84-57.13,2.57c0,0,4.55.2,7.31-1.58,2.77-1.78,5.83-5.53,9.78.4,2.77,4.05-.4-7.71,7.81-7.81,6.92,0,10.77,9.19,13.64,10.18,2.87.99.59-.79.49-.89-1.09-1.88-12.55-17.2,17.99-2.96h0l.1.1Z"/>
      <path class="cls-3" d="M207.25,174.64s-13.05-4.05-10.67-4.35c1.38-.2,3.16-.4,10.67,4.35Z"/>
      <path class="cls-3" d="M207.45,172.86s-5.24-4.35-4.05-4.05c.69.2,1.58.4,4.05,4.05Z"/>
      <path class="cls-1" d="M148.74,219.71c-57.42,0-103.87-43.49-103.87-97.05S91.42,25.6,148.74,25.6s68.29,17.39,86.87,43.88C217.73,31.92,178.99,0,124.83,0S0,62.76,0,116.03s13.44,67.7,33.8,102.98c23.03,15.02,102.69,43.39,146.77,18.48-22.53,18.09-62.76,39.73-129.97,8.8,0,0,48.72,67.8,74.22,101.7,10.38-14.63,31.82-44.18,31.82-44.18-24.71,5.14-55.45-9.69-55.45-9.69,0,0,52.88,13.14,69.58-10.08,24.51-34.69,47.14-69.48,61.18-103.38-18.98,23.72-49.22,39.04-83.22,39.04h0Z"/>
    </g>
  </g>
</svg>