<svg width="15" height="14" viewBox="0 0 15 14" fill="none" xmlns="http://www.w3.org/2000/svg">
<path d="M13.3481 6.82568C13.3437 6.30713 12.6362 5.89844 11.7705 5.89844H9.96435C9.71826 5.89844 9.62598 5.85449 9.47656 5.6919L6.49707 2.4707C6.40039 2.36523 6.28613 2.3125 6.15869 2.3125H5.5918C5.47754 2.3125 5.41162 2.41797 5.46436 2.53662L7.00684 5.89404L4.75244 6.14453L3.94824 4.71191C3.88672 4.60205 3.79443 4.55371 3.64941 4.55371H3.45166C3.33301 4.55371 3.25391 4.63281 3.25391 4.75147V8.8999C3.25391 9.01856 3.33301 9.09766 3.45166 9.09766H3.64941C3.79443 9.09766 3.88672 9.04932 3.94824 8.93945L4.75244 7.50244L7.00684 7.75732L5.46436 11.1147C5.41162 11.2334 5.47754 11.3389 5.5918 11.3389H6.15869C6.28613 11.3389 6.40039 11.2817 6.49707 11.1807L9.47656 7.95947C9.62598 7.79688 9.71826 7.75293 9.96435 7.75293H11.7705C12.6362 7.75293 13.3437 7.33984 13.3481 6.82568Z" fill="#969CA6"/>
</svg>
