<svg width="15" height="14" viewBox="0 0 15 14" fill="none" xmlns="http://www.w3.org/2000/svg">
<g clip-path="url(#clip0_1509_5549)">
<path d="M2.88867 11.3794C4.3125 11.3794 5.49902 10.3379 5.71435 8.97119H6.41308C6.57129 9.2876 6.90527 9.50733 7.29199 9.50733C7.83252 9.50733 8.26758 9.07227 8.26758 8.53614C8.26758 8.29883 8.17969 8.0791 8.03467 7.90772L10.1924 5.60059L10.3594 6.02686C9.48926 6.51465 8.90039 7.45069 8.90039 8.51856C8.90039 10.1006 10.1836 11.3838 11.77 11.3838C13.3477 11.3838 14.6265 10.1006 14.6265 8.51856C14.6265 6.93653 13.3477 5.65772 11.77 5.65772C11.5283 5.65772 11.291 5.68848 11.0669 5.74561L9.82324 2.59473C9.73535 2.36621 9.57715 2.26953 9.30029 2.26953H7.98193C7.7666 2.26953 7.59082 2.44531 7.59082 2.66064C7.59082 2.87158 7.7666 3.04736 7.98193 3.04736H9.14648C9.18603 3.04736 9.19482 3.05615 9.20801 3.08252L9.91113 4.87549L6.00439 5.4292L5.42871 4.35254H5.91211C6.12744 4.35254 6.29883 4.18115 6.29883 3.96582C6.29883 3.75049 6.12305 3.57471 5.91211 3.57471H4.03125C3.82031 3.57471 3.64453 3.75049 3.64453 3.96582C3.64453 4.18115 3.81592 4.35254 4.03125 4.35254H4.58935L5.20459 5.53467L4.57178 6.20264C4.10156 5.85986 3.51709 5.65772 2.88867 5.65772C1.30225 5.65772 0.0234375 6.93653 0.0234375 8.51856C0.0234375 10.1006 1.30664 11.3794 2.88867 11.3794ZM7.29199 7.56494C7.24365 7.56494 7.19971 7.56934 7.15137 7.57373L6.36475 6.10156L9.13769 5.71045L7.3667 7.56494C7.34033 7.56494 7.31836 7.56494 7.29199 7.56494ZM5.74072 8.2461C5.68359 7.66602 5.45508 7.13428 5.10791 6.70801L5.56933 6.22901L6.48779 7.98682C6.43066 8.06592 6.39111 8.15381 6.36035 8.2461H5.74072ZM2.88867 10.5972C1.7373 10.5972 0.814453 9.67432 0.814453 8.51856C0.814453 7.37158 1.7417 6.44434 2.88867 6.44434C3.31055 6.44434 3.69726 6.56738 4.02246 6.77832L2.95898 7.89893C2.93701 7.89453 2.91504 7.89453 2.88867 7.89453C2.5415 7.89453 2.26904 8.1626 2.26465 8.51856C2.26025 8.86573 2.53711 9.14258 2.88867 9.14258C3.05566 9.14258 3.20947 9.07666 3.31934 8.97119H4.91455C4.7124 9.90283 3.88184 10.5972 2.88867 10.5972ZM11.77 10.5972C10.6187 10.5972 9.6914 9.67432 9.6914 8.51856C9.6914 7.78467 10.0737 7.13867 10.6494 6.76953L11.2163 8.21973C11.1724 8.30762 11.1416 8.40869 11.1416 8.51856C11.1372 8.86573 11.4141 9.14258 11.77 9.14258C12.1172 9.14258 12.3896 8.86573 12.3896 8.51856C12.3896 8.22412 12.1963 7.98242 11.9238 7.91211L11.3613 6.48389C11.4932 6.45752 11.6294 6.44434 11.77 6.44434C12.9126 6.44434 13.8442 7.37598 13.8442 8.51856C13.8442 9.66992 12.9126 10.5972 11.77 10.5972ZM3.63135 8.2461L4.55859 7.28369C4.76074 7.55615 4.90137 7.88574 4.94971 8.2461H3.63135ZM7.29639 8.84815C7.11621 8.84815 6.97558 8.70752 6.97558 8.54492C6.97558 8.36914 7.1206 8.21973 7.29639 8.21973C7.47217 8.21973 7.6084 8.36475 7.6084 8.54492C7.6084 8.71192 7.47217 8.84815 7.29639 8.84815Z" fill="#969CA6"/>
</g>
<defs>
<clipPath id="clip0_1509_5549">
<rect width="14" height="14" fill="white" transform="translate(0.328125)"/>
</clipPath>
</defs>
</svg>
