<svg width="25" height="24" viewBox="0 0 25 24" fill="none" xmlns="http://www.w3.org/2000/svg">
<path d="M22.3477 16.7417V4.67165C22.3477 3.47165 21.3677 2.58165 20.1777 2.68165H20.1177C18.0177 2.86165 14.8277 3.93165 13.0477 5.05165L12.8777 5.16165C12.5877 5.34165 12.1077 5.34165 11.8177 5.16165L11.5677 5.01165C9.78766 3.90165 6.60766 2.84165 4.50766 2.67165C3.31766 2.57165 2.34766 3.47165 2.34766 4.66165V16.7417C2.34766 17.7017 3.12766 18.6017 4.08766 18.7217L4.37766 18.7617C6.54766 19.0517 9.89766 20.1517 11.8177 21.2017L11.8577 21.2217C12.1277 21.3717 12.5577 21.3717 12.8177 21.2217C14.7377 20.1617 18.0977 19.0517 20.2777 18.7617L20.6077 18.7217C21.5677 18.6017 22.3477 17.7017 22.3477 16.7417Z" stroke="#171717" stroke-width="1.5" stroke-linecap="round" stroke-linejoin="round"/>
<path d="M12.3477 5.48828V20.4883" stroke="#171717" stroke-width="1.5" stroke-linecap="round" stroke-linejoin="round"/>
<path d="M8.09766 8.48828H5.84766" stroke="#171717" stroke-width="1.5" stroke-linecap="round" stroke-linejoin="round"/>
<path d="M8.84766 11.4883H5.84766" stroke="#171717" stroke-width="1.5" stroke-linecap="round" stroke-linejoin="round"/>
</svg>
