<svg width="21" height="20" viewBox="0 0 21 20" fill="none" xmlns="http://www.w3.org/2000/svg">
<path d="M18.6945 4.82165L12.9345 0.791647C11.3645 -0.308353 8.95453 -0.248353 7.44453 0.921647L2.43453 4.83165C1.43453 5.61165 0.644531 7.21165 0.644531 8.47165V15.3716C0.644531 17.9216 2.71453 20.0016 5.26453 20.0016H16.0445C18.5945 20.0016 20.6645 17.9316 20.6645 15.3816V8.60165C20.6645 7.25165 19.7945 5.59165 18.6945 4.82165ZM11.4045 16.0016C11.4045 16.4116 11.0645 16.7516 10.6545 16.7516C10.2445 16.7516 9.90453 16.4116 9.90453 16.0016V13.0016C9.90453 12.5916 10.2445 12.2516 10.6545 12.2516C11.0645 12.2516 11.4045 12.5916 11.4045 13.0016V16.0016Z" fill="#FF8255"/>
</svg>
