<svg width="25" height="24" viewBox="0 0 25 24" fill="none" xmlns="http://www.w3.org/2000/svg">
<path d="M19.7188 12.5C19.7188 11.12 20.8388 10 22.2188 10V9C22.2188 5 21.2188 4 17.2188 4H7.21875C3.21875 4 2.21875 5 2.21875 9V9.5C3.59875 9.5 4.71875 10.62 4.71875 12C4.71875 13.38 3.59875 14.5 2.21875 14.5V15C2.21875 19 3.21875 20 7.21875 20H17.2188C21.2188 20 22.2188 19 22.2188 15C20.8388 15 19.7188 13.88 19.7188 12.5Z" stroke="#2D2D2D" stroke-width="1.5" stroke-linecap="round" stroke-linejoin="round"/>
<path d="M9.21875 14.75L15.2188 8.75" stroke="#2D2D2D" stroke-width="1.5" stroke-linecap="round" stroke-linejoin="round"/>
<path d="M15.2133 14.75H15.2222" stroke="#2D2D2D" stroke-width="1.5" stroke-linecap="round" stroke-linejoin="round"/>
<path d="M9.21326 9.25H9.22224" stroke="#2D2D2D" stroke-width="1.5" stroke-linecap="round" stroke-linejoin="round"/>
</svg>
