<svg width="25" height="24" viewBox="0 0 25 24" fill="none" xmlns="http://www.w3.org/2000/svg">
<path d="M22.7812 12C22.7812 6.48 18.3012 2 12.7812 2C7.26125 2 2.78125 6.48 2.78125 12C2.78125 17.52 7.26125 22 12.7812 22" stroke="#171717" stroke-width="1.5" stroke-linecap="round" stroke-linejoin="round"/>
<path d="M8.78281 3H9.78281C7.83281 8.84 7.83281 15.16 9.78281 21H8.78281" stroke="#171717" stroke-width="1.5" stroke-linecap="round" stroke-linejoin="round"/>
<path d="M15.7812 3C16.7513 5.92 17.2413 8.96 17.2413 12" stroke="#171717" stroke-width="1.5" stroke-linecap="round" stroke-linejoin="round"/>
<path d="M3.78125 16V15C6.70125 15.97 9.74125 16.46 12.7812 16.46" stroke="#171717" stroke-width="1.5" stroke-linecap="round" stroke-linejoin="round"/>
<path d="M3.78125 9.00156C9.62125 7.05156 15.9412 7.05156 21.7812 9.00156" stroke="#171717" stroke-width="1.5" stroke-linecap="round" stroke-linejoin="round"/>
<path d="M18.9812 21.4C20.7486 21.4 22.1812 19.9673 22.1812 18.2C22.1812 16.4327 20.7486 15 18.9812 15C17.2139 15 15.7812 16.4327 15.7812 18.2C15.7812 19.9673 17.2139 21.4 18.9812 21.4Z" stroke="#171717" stroke-width="1.5" stroke-linecap="round" stroke-linejoin="round"/>
<path d="M22.7812 22L21.7812 21" stroke="#171717" stroke-width="1.5" stroke-linecap="round" stroke-linejoin="round"/>
</svg>
